<?xml version="1.0" standalone="no"?>
<!DOCTYPE svg PUBLIC "-//W3C//DTD SVG 20010904//EN"
 "http://www.w3.org/TR/2001/REC-SVG-20010904/DTD/svg10.dtd">
<svg version="1.0" xmlns="http://www.w3.org/2000/svg"
 width="1024.000000pt" height="1024.000000pt" viewBox="0 0 1024.000000 1024.000000"
 preserveAspectRatio="xMidYMid meet">

<g transform="translate(0.000000,1024.000000) scale(0.100000,-0.100000)"
fill="#000000" stroke="none">
<path d="M4720 8989 c-108 -74 -169 -165 -191 -283 -6 -36 -9 -172 -7 -355 l3
-296 38 -79 37 -78 -46 -41 c-74 -65 -98 -152 -70 -251 25 -86 81 -136 189
-170 16 -5 17 -30 17 -338 l0 -333 -292 -146 c-161 -81 -363 -185 -448 -233
l-154 -86 -81 0 c-101 0 -222 -29 -332 -80 -107 -50 -161 -88 -245 -174 -128
-129 -211 -285 -244 -455 -19 -94 -21 -286 -4 -406 l12 -90 -50 -75 c-158
-239 -175 -536 -46 -793 129 -256 404 -553 689 -744 92 -61 104 -43 60 88 -28
83 -65 251 -65 298 0 19 15 52 39 88 22 32 70 108 108 168 37 61 71 112 75
115 3 3 81 -114 172 -260 l166 -264 0 -278 0 -278 26 -10 c67 -26 593 -171
624 -173 19 -1 37 -5 40 -8 3 -3 25 -8 50 -11 25 -3 37 -3 28 -1 -26 6 -22 22
7 29 14 3 25 10 25 15 0 11 -14 12 -24 2 -3 -4 -14 -8 -23 -9 -25 -4 -1 14 28
21 33 8 50 -12 26 -30 -9 -7 -14 -15 -10 -18 10 -11 25 -8 18 3 -9 14 8 13 23
-2 8 -8 12 -9 12 -1 0 6 -5 13 -12 15 -6 2 -8 10 -4 17 6 9 11 9 24 -1 13 -11
15 -10 9 14 -8 30 8 47 26 29 14 -14 30 -15 22 -1 -3 6 1 10 9 10 9 0 16 6 16
14 0 19 32 30 42 14 6 -10 8 -9 8 4 0 11 5 15 15 12 8 -4 12 -10 9 -15 -3 -5
2 -6 10 -3 16 6 23 -10 9 -19 -5 -2 -3 -2 4 -1 20 5 34 -23 40 -80 l6 -56 93
0 94 0 0 48 c0 73 38 125 99 133 20 3 26 -1 32 -21 l6 -25 8 28 c9 32 45 39
45 8 0 -14 6 -19 20 -16 11 2 20 0 20 -6 0 -5 -7 -9 -15 -9 -8 0 -15 -8 -15
-17 0 -15 2 -16 10 -3 9 13 10 13 10 0 0 -9 3 -11 8 -5 10 13 82 19 82 6 0 -6
-8 -7 -17 -4 -16 6 -16 5 -4 -10 7 -9 17 -14 22 -12 4 3 13 -3 19 -12 9 -15
10 -14 4 7 -6 24 -6 24 10 5 8 -11 16 -26 16 -32 0 -18 42 -15 120 6 349 96
574 162 585 172 6 6 11 125 14 295 l3 285 81 127 c44 70 113 182 155 250 41
67 77 122 81 122 4 0 15 -15 26 -32 10 -18 59 -95 108 -171 83 -128 90 -142
89 -185 -3 -68 -18 -142 -59 -275 -45 -146 -40 -158 44 -102 129 85 225 165
358 299 194 195 310 356 380 528 44 108 59 197 53 322 -7 148 -37 245 -115
374 l-65 107 12 85 c17 132 13 320 -9 428 -47 224 -209 448 -408 564 -126 75
-284 118 -425 118 l-70 0 -196 109 c-109 60 -289 154 -401 210 -112 57 -221
113 -242 127 l-39 24 0 329 0 328 43 17 c103 39 167 131 167 242 0 88 -33 156
-95 194 l-34 21 23 33 c48 71 58 132 54 314 -3 143 -7 174 -24 213 -51 111
-133 163 -255 164 l-76 0 -11 40 c-15 56 -73 119 -140 152 -56 27 -62 28 -267
33 -201 5 -212 6 -255 30 -38 22 -79 66 -115 123 -9 14 -15 13 -55 -14z m105
-2446 c3 -16 22 -68 40 -118 18 -49 35 -99 37 -110 2 -11 6 -22 9 -25 10 -9
68 -160 61 -160 -4 0 -61 15 -127 34 -202 57 -525 115 -638 116 l-32 0 25 20
c31 24 298 148 435 201 55 22 110 45 122 50 11 6 27 8 34 4 8 -5 10 -4 5 3 -4
7 -1 12 7 12 8 0 18 -12 22 -27z m875 2 c14 -7 60 -26 102 -43 42 -17 163 -73
269 -124 l192 -93 -133 -17 c-185 -24 -330 -52 -504 -99 -81 -22 -150 -38
-153 -36 -2 3 0 13 5 24 6 10 20 47 32 83 46 134 83 219 93 213 7 -4 8 0 3 12
-3 10 -4 26 0 37 5 17 6 17 23 -3 13 -17 23 -20 37 -14 18 8 18 9 -3 12 -13 3
-23 9 -23 14 0 6 5 7 10 4 6 -3 10 1 10 10 0 12 -6 15 -19 10 -16 -5 -18 -2
-14 15 6 22 21 21 73 -5z m-1455 -441 c250 -28 607 -114 704 -171 107 -62 164
-144 181 -259 23 -162 4 -606 -30 -709 -36 -108 -133 -210 -236 -248 -124 -46
-351 -44 -524 4 -234 65 -430 240 -486 434 -65 227 48 502 256 624 51 30 52
32 20 25 -120 -24 -373 -140 -376 -172 0 -4 -28 -64 -63 -133 -65 -133 -111
-190 -199 -251 -79 -54 -324 -140 -344 -120 -15 15 -38 193 -38 292 0 201 61
353 194 485 203 202 447 254 941 199z m2525 0 c95 -19 236 -87 318 -155 163
-135 242 -312 242 -542 0 -92 -23 -273 -36 -286 -2 -3 -41 6 -87 18 -125 35
-252 100 -325 166 -55 50 -70 73 -122 180 -74 156 -103 188 -208 237 -81 38
-229 84 -238 75 -3 -2 17 -19 44 -36 63 -40 143 -125 172 -181 61 -120 84
-270 61 -391 -47 -236 -285 -435 -583 -488 -255 -45 -447 -9 -564 106 -58 56
-87 105 -110 190 -22 79 -33 618 -14 702 37 171 138 246 435 321 385 98 777
131 1015 84z m-3384 -1099 c9 -8 21 -15 27 -15 7 0 6 4 -3 10 -11 8 -7 9 15 4
38 -8 75 -31 75 -46 0 -6 3 -8 7 -5 3 4 15 -7 25 -23 14 -24 16 -35 8 -50 -7
-12 -7 -20 -1 -20 5 0 12 6 15 13 3 6 4 0 2 -15 -2 -15 1 -25 6 -22 5 4 8 -4
6 -17 -2 -17 -11 -26 -33 -30 l-30 -6 33 -2 32 -1 0 -66 c0 -193 -121 -410
-347 -623 -59 -56 -112 -100 -118 -98 -5 2 -35 53 -65 113 -70 137 -100 253
-100 384 1 255 118 437 325 509 72 24 101 26 121 6z m3787 -5 c73 -23 167 -87
214 -146 77 -98 113 -211 113 -356 0 -155 -26 -255 -101 -388 -78 -139 -58
-137 -188 -14 -170 162 -275 319 -327 489 -25 83 -26 255 0 307 20 42 46 59
39 25 -4 -20 -3 -20 7 -4 6 9 8 26 5 37 -4 12 -2 20 5 20 6 0 9 -3 7 -7 -3 -5
-1 -17 4 -28 l9 -20 -1 20 c-2 35 1 45 12 45 5 0 8 -4 4 -9 -3 -5 0 -13 6 -17
8 -5 10 1 7 20 -4 17 -1 26 8 26 7 0 21 3 31 6 15 5 15 4 3 -5 -11 -8 -11 -11
-2 -11 7 0 15 7 18 15 8 21 49 19 127 -5z m-2090 -491 c40 -18 61 -65 59 -135
-1 -77 -22 -121 -67 -140 -50 -20 -243 -19 -273 2 -51 35 -67 124 -35 191 10
21 35 48 62 64 41 27 53 29 137 29 51 0 104 -5 117 -11z m523 -8 c77 -47 113
-143 80 -213 -27 -57 -58 -68 -190 -68 -112 0 -117 1 -146 28 -60 53 -64 199
-8 252 19 17 36 20 127 20 87 0 112 -4 137 -19z m-519 -437 c47 -34 65 -80 60
-154 -5 -78 -26 -124 -70 -150 -28 -18 -51 -20 -190 -20 -168 0 -190 5 -234
52 -26 28 -53 89 -53 120 0 48 23 104 56 135 40 37 69 41 276 39 111 -2 131
-4 155 -22z m685 -2 c72 -45 95 -166 44 -242 -44 -67 -80 -79 -257 -82 -171
-3 -198 4 -234 65 -22 38 -32 152 -16 199 25 75 68 87 296 84 116 -1 134 -4
167 -24z m-1414 -9 c34 -3 65 -9 67 -14 8 -13 -65 -32 -98 -25 -32 6 -67 32
-67 49 0 5 8 6 18 2 9 -4 45 -9 80 -12z m1812 2 c0 -19 -51 -45 -88 -45 -15 0
-37 6 -47 14 -18 13 -17 15 20 21 33 5 104 20 113 24 1 1 2 -6 2 -14z m-1080
-473 c45 -33 62 -79 57 -158 -5 -85 -26 -128 -77 -155 -29 -16 -57 -19 -175
-19 -77 0 -157 5 -177 10 -43 12 -91 63 -108 116 -25 74 6 174 63 207 26 14
208 26 317 21 52 -3 83 -10 100 -22z m685 -2 c73 -45 94 -170 42 -250 -46 -68
-84 -80 -263 -80 -141 0 -153 2 -185 23 -49 32 -69 79 -69 158 0 85 15 126 54
150 27 17 52 19 210 19 162 0 182 -2 211 -20z m-1475 -223 c0 -7 11 -29 25
-50 14 -20 22 -37 18 -37 -4 0 -3 -4 2 -8 6 -4 17 -16 25 -27 11 -15 8 -14
-12 4 -15 13 -25 28 -22 32 3 5 1 9 -3 9 -5 0 -19 20 -31 45 -25 51 -27 59
-12 50 6 -3 10 -12 10 -18z m1827 -62 c-10 -7 -17 -17 -17 -23 0 -14 -69 -82
-83 -82 -6 0 -2 8 9 19 27 26 50 55 49 62 0 14 38 48 48 42 6 -4 4 -11 -6 -18z
m-1257 -194 c0 -5 -9 -7 -20 -4 -11 3 -20 7 -20 9 0 2 9 4 20 4 11 0 20 -4 20
-9z m27 -13 c-3 -8 -6 -5 -6 6 -1 11 2 17 5 13 3 -3 4 -12 1 -19z m43 13 c0
-6 -4 -13 -10 -16 -5 -3 -10 1 -10 9 0 9 5 16 10 16 6 0 10 -4 10 -9z m600 5
c0 -3 -4 -8 -10 -11 -5 -3 -10 -1 -10 4 0 6 5 11 10 11 6 0 10 -2 10 -4z m130
-36 c-8 -5 -24 -9 -35 -9 -16 1 -16 2 5 9 35 11 48 11 30 0z m-815 -10 c-3 -5
-12 -10 -18 -10 -7 0 -6 4 3 10 19 12 23 12 15 0z"/>
<path d="M4725 6490 c-3 -6 1 -7 9 -4 18 7 21 14 7 14 -6 0 -13 -4 -16 -10z"/>
<path d="M4770 6489 c0 -5 5 -7 10 -4 6 3 10 8 10 11 0 2 -4 4 -10 4 -5 0 -10
-5 -10 -11z"/>
<path d="M4875 6330 c3 -5 8 -10 11 -10 2 0 4 5 4 10 0 6 -5 10 -11 10 -5 0
-7 -4 -4 -10z"/>
<path d="M5680 6520 c0 -5 5 -10 10 -10 6 0 10 5 10 10 0 6 -4 10 -10 10 -5 0
-10 -4 -10 -10z"/>
<path d="M5622 6471 c2 -7 7 -12 11 -12 12 1 9 15 -3 20 -7 2 -11 -2 -8 -8z"/>
<path d="M5650 6440 c0 -5 5 -10 10 -10 6 0 10 5 10 10 0 6 -4 10 -10 10 -5 0
-10 -4 -10 -10z"/>
<path d="M3435 4980 c-3 -5 1 -10 10 -10 9 0 13 5 10 10 -3 6 -8 10 -10 10 -2
0 -7 -4 -10 -10z"/>
<path d="M3386 4958 c3 -5 10 -6 15 -3 13 9 11 12 -6 12 -8 0 -12 -4 -9 -9z"/>
<path d="M3435 4950 c-3 -6 1 -7 9 -4 18 7 21 14 7 14 -6 0 -13 -4 -16 -10z"/>
<path d="M3405 4920 c3 -5 8 -10 11 -10 2 0 4 5 4 10 0 6 -5 10 -11 10 -5 0
-7 -4 -4 -10z"/>
<path d="M3461 4884 c0 -11 3 -14 6 -6 3 7 2 16 -1 19 -3 4 -6 -2 -5 -13z"/>
<path d="M3494 4888 c4 -20 26 -21 26 -1 0 14 -2 15 -9 4 -6 -9 -10 -10 -14
-2 -4 8 -5 8 -3 -1z"/>
<path d="M3500 4829 c0 -5 5 -7 10 -4 6 3 10 8 10 11 0 2 -4 4 -10 4 -5 0 -10
-5 -10 -11z"/>
<path d="M6936 4895 c-3 -9 0 -15 9 -15 9 0 12 6 9 15 -4 8 -7 15 -9 15 -2 0
-5 -7 -9 -15z"/>
<path d="M6965 4859 c-4 -6 -5 -12 -2 -15 2 -3 7 2 10 11 7 17 1 20 -8 4z"/>
<path d="M6923 4844 c-15 -16 -16 -24 -4 -24 8 0 24 30 19 35 -2 2 -9 -3 -15
-11z"/>
<path d="M6985 4830 c3 -5 8 -10 11 -10 2 0 4 5 4 10 0 6 -5 10 -11 10 -5 0
-7 -4 -4 -10z"/>
<path d="M3936 8164 c-3 -9 -6 -40 -6 -70 l0 -54 -60 0 c-49 0 -61 -3 -70 -20
-8 -14 -8 -26 0 -40 9 -17 21 -20 70 -20 l60 0 0 -59 c0 -69 17 -95 53 -82 23
9 34 39 36 103 l1 37 63 3 62 3 0 35 0 35 -62 3 -63 3 0 57 c0 32 -5 63 -12
70 -17 17 -65 15 -72 -4z"/>
<path d="M6436 8068 c-3 -13 -7 -32 -8 -43 -2 -11 -10 -21 -18 -22 -85 -11
-90 -13 -90 -43 0 -32 25 -45 70 -38 20 3 25 -3 34 -42 9 -35 16 -46 34 -48
24 -4 27 2 37 60 3 21 13 44 21 53 9 8 12 20 8 27 -6 10 -5 11 8 1 15 -13 28
-8 28 11 0 6 -5 4 -10 -4 -6 -10 -10 -11 -10 -2 0 6 -9 12 -19 12 -22 0 -31
19 -31 66 0 30 -3 34 -25 34 -17 0 -26 -7 -29 -22z"/>
<path d="M5405 3086 l-30 -13 29 -7 c15 -4 31 -5 34 -1 3 3 -1 5 -9 5 -12 0
-12 2 1 10 24 15 7 19 -25 6z"/>
<path d="M5478 3075 c-4 -17 -1 -25 8 -25 8 0 14 11 14 25 0 14 -4 25 -9 25
-5 0 -11 -11 -13 -25z"/>
<path d="M4992 3044 c-14 -16 -5 -18 17 -5 7 5 9 11 5 14 -5 3 -15 -1 -22 -9z"/>
<path d="M5420 3040 c-9 -6 -10 -10 -3 -10 6 0 15 5 18 10 8 12 4 12 -15 0z"/>
<path d="M5434 3019 c-3 -6 -2 -15 3 -20 5 -5 9 -1 9 11 0 23 -2 24 -12 9z"/>
<path d="M5485 3019 c4 -5 11 -7 16 -4 5 4 9 2 9 -4 0 -6 7 -8 15 -4 20 7 16
11 -18 17 -16 3 -25 1 -22 -5z"/>
<path d="M4952 3004 c-7 -8 -8 -14 -3 -14 10 0 25 19 20 25 -2 1 -10 -3 -17
-11z"/>
<path d="M5590 2990 c-9 -6 -10 -10 -3 -10 6 0 15 5 18 10 8 12 4 12 -15 0z"/>
<path d="M5611 2967 c-13 -21 -12 -21 5 -5 10 10 16 20 13 22 -3 3 -11 -5 -18
-17z"/>
<path d="M5655 2970 c-3 -5 -1 -10 4 -10 6 0 11 5 11 10 0 6 -2 10 -4 10 -3 0
-8 -4 -11 -10z"/>
<path d="M3504 2485 c-34 -7 -77 -21 -95 -30 -114 -58 -215 -182 -239 -293
-15 -75 -9 -188 15 -257 22 -64 307 -645 347 -707 26 -42 34 -48 65 -48 23 0
41 8 56 24 31 34 350 667 377 750 19 58 22 83 18 161 -4 77 -10 102 -37 157
-64 130 -191 225 -331 247 -80 13 -99 13 -176 -4z m215 -206 c158 -79 199
-275 85 -408 -79 -92 -206 -118 -312 -65 -159 79 -200 279 -85 413 80 94 198
117 312 60z"/>
<path d="M5135 2451 c-81 -37 -125 -111 -125 -208 0 -118 78 -203 193 -211
136 -10 237 84 237 220 -1 160 -162 265 -305 199z"/>
<path d="M6765 2461 c-140 -35 -265 -183 -265 -314 0 -39 -4 -45 -47 -77 -72
-53 -106 -123 -111 -230 -5 -109 18 -173 97 -273 56 -70 241 -253 361 -357
l59 -51 113 103 c345 315 417 420 406 592 -6 88 -33 145 -100 208 -45 43 -50
53 -58 106 -19 135 -117 246 -250 286 -55 16 -152 20 -205 7z m179 -151 c38
-14 107 -81 123 -117 23 -56 18 -70 -28 -76 -52 -7 -112 -47 -147 -97 -15 -22
-29 -39 -32 -39 -3 0 -16 18 -30 41 -33 54 -102 98 -153 98 l-40 0 6 36 c16
95 108 164 219 164 31 0 68 -4 82 -10z"/>
<path d="M8485 2439 c-294 -49 -524 -324 -525 -627 0 -232 142 -459 354 -562
335 -163 741 3 874 359 33 89 42 266 18 361 -82 321 -394 524 -721 469z m281
-233 c272 -129 345 -456 149 -674 -95 -106 -201 -148 -349 -139 -141 8 -254
69 -331 181 -143 208 -70 505 154 625 77 41 127 51 224 46 64 -3 91 -10 153
-39z"/>
<path d="M8502 2075 c-59 -18 -122 -73 -157 -136 -101 -186 63 -424 272 -395
229 31 331 281 182 449 -76 87 -185 117 -297 82z m139 -175 c53 -29 61 -121
12 -160 -70 -55 -175 8 -159 96 12 60 90 94 147 64z"/>
<path d="M1459 2001 c-22 -17 -24 -27 -24 -100 l0 -81 -47 0 c-67 0 -97 -14
-114 -55 -18 -45 -10 -96 21 -125 25 -24 40 -28 100 -29 l40 -1 0 -76 c1 -105
12 -114 145 -114 95 0 99 1 119 26 17 22 21 41 21 100 l0 74 190 0 190 0 0
-80 c0 -113 9 -120 139 -120 134 0 144 8 149 119 l4 80 61 3 c52 3 63 7 81 31
27 37 27 97 0 134 -18 24 -29 28 -81 31 l-61 3 -3 78 c-6 114 -14 121 -146
121 -135 0 -143 -7 -143 -120 l0 -80 -190 0 -190 0 0 74 c0 59 -4 78 -21 100
-20 25 -24 26 -119 26 -81 0 -102 -3 -121 -19z"/>
<path d="M5056 1910 c-34 -11 -81 -53 -104 -95 -14 -26 -17 -67 -17 -285 0
-245 1 -257 22 -297 13 -23 37 -52 55 -65 30 -21 45 -23 182 -26 177 -4 205 0
247 35 63 54 69 80 69 353 0 217 -3 250 -19 285 -22 48 -54 78 -100 94 -39 13
-292 14 -335 1z m204 -199 c16 -31 12 -49 -15 -67 -23 -15 -27 -15 -50 0 -43
28 -26 86 25 86 19 0 33 -7 40 -19z m-8 -188 c25 -22 23 -58 -4 -70 -50 -23
-97 29 -62 68 21 23 42 24 66 2z m10 -198 c9 -21 8 -28 -7 -45 -22 -24 -42
-25 -67 -3 -35 32 -16 73 34 73 21 0 32 -7 40 -25z"/>
</g>
</svg>
